Coordinates
version=1
nRows=9
nColumns=63
inDegrees=yes

Units are S.I. units (second, meters, Newtons, ...)
If the header above contains a line with 'inDegrees', this indicates whether rotational values are in degrees (yes) or radians (no).

endheader
time	pelvis_tilt	pelvis_list	pelvis_rotation	pelvis_tx	pelvis_ty	pelvis_tz	hip_flexion_r	hip_adduction_r	hip_rotation_r	knee_angle_r	knee_angle_r_beta	ankle_angle_r	subtalar_angle_r	mtp_angle_r	hip_flexion_l	hip_adduction_l	hip_rotation_l	knee_angle_l	knee_angle_l_beta	ankle_angle_l	subtalar_angle_l	mtp_angle_l	L5_S1_Flex_Ext	L5_S1_Lat_Bending	L5_S1_axial_rotation	L4_L5_Flex_Ext	L4_L5_Lat_Bending	L4_L5_axial_rotation	L3_L4_Flex_Ext	L3_L4_Lat_Bending	L3_L4_axial_rotation	L2_L3_Flex_Ext	L2_L3_Lat_Bending	L2_L3_axial_rotation	L1_L2_Flex_Ext	L1_L2_Lat_Bending	L1_L2_axial_rotation	L1_T12_Flex_Ext	L1_T12_Lat_Bending	L1_T12_axial_rotation	Abs_r3	Abs_r2	Abs_r1	Abs_t1	Abs_t2	neck_flexion	neck_bending	neck_rotation	arm_flex_r	arm_add_r	arm_rot_r	elbow_flex_r	pro_sup_r	wrist_flex_r	wrist_dev_r	arm_flex_l	arm_add_l	arm_rot_l	elbow_flex_l	pro_sup_l	wrist_flex_l	wrist_dev_l
1.388889	0.020533	-3.104384	96.770365	0.254401	0.897411	0.669138	-4.418756	2.049570	-5.542701	10.493568	0.183147	28.213152	-5.962448	0.000000	-6.123937	-2.525039	11.129650	9.260160	0.161620	25.770050	1.301613	0.000000	-0.422874	0.204331	-2.141471	-0.785320	0.271760	-2.275312	-0.694741	0.496809	-2.275312	-0.483303	0.496809	-1.873787	-0.392681	0.416671	-1.739945	-0.241630	0.316508	-1.606103	-3.020550	2.311429	-11.910217	0.000000	0.000000	18.911784	-6.857352	-13.395556	1.052554	-9.105922	-26.149292	90.727584	66.284223	-5.929627	6.738908	7.506754	-13.727953	22.841601	24.560056	79.899973	-12.895463	0.619971
1.407407	0.118347	-2.816277	97.960597	0.253079	0.897652	0.668056	-4.909545	2.310235	-6.529874	10.292604	0.179640	28.150228	-6.140664	0.000000	-6.274385	-2.765271	12.230084	9.405394	0.164155	25.825109	1.194032	0.000000	-0.440002	0.212035	-2.405078	-0.817129	0.282007	-2.555396	-0.722880	0.515542	-2.555396	-0.502879	0.515542	-2.104444	-0.408586	0.432382	-1.954126	-0.251417	0.328443	-1.803809	-3.142894	2.398585	-13.376324	0.000000	0.000000	18.752323	-6.697184	-13.246165	1.905939	-9.332762	-29.319942	92.689109	65.069765	-5.221121	6.139835	7.222945	-13.842266	22.372267	24.606043	79.724279	-12.648381	0.905892
1.425926	0.237024	-2.585581	99.018078	0.251804	0.897781	0.667117	-5.311489	2.580870	-7.443094	10.103631	0.176342	28.098810	-6.239406	0.000000	-6.376996	-3.008036	13.223254	9.537977	0.166469	25.889641	1.033127	0.000000	-0.452399	0.222852	-2.622638	-0.840149	0.296393	-2.786553	-0.743246	0.541842	-2.786553	-0.517046	0.541842	-2.294809	-0.420097	0.454439	-2.130894	-0.258501	0.345197	-1.966979	-3.231437	2.520944	-14.586329	0.000000	0.000000	18.697223	-6.626849	-13.241928	2.784044	-9.865062	-32.500840	94.714755	64.643352	-4.720214	5.754412	7.052530	-13.887004	22.007402	24.660498	79.548221	-12.385751	1.218180
1.444444	0.373714	-2.418063	99.914205	0.250613	0.897789	0.666303	-5.616223	2.846753	-8.280464	9.933160	0.173366	28.074143	-6.220271	0.000000	-6.434879	-3.242254	14.090142	9.651388	0.168448	25.952682	0.811010	0.000000	-0.458970	0.235259	-2.787389	-0.852353	0.312895	-2.961601	-0.754042	0.572009	-2.961601	-0.524557	0.572009	-2.438965	-0.426199	0.479740	-2.264754	-0.262255	0.364416	-2.090542	-3.278376	2.661299	-15.502621	0.000000	0.000000	18.735916	-6.637724	-13.423606	3.729097	-10.688649	-35.732873	96.789961	64.977265	-4.330130	5.596743	6.907866	-13.838847	21.251223	24.760481	80.009659	-12.076617	1.625012
1.462963	0.524018	-2.310039	100.620812	0.249562	0.897685	0.665605	-5.824369	3.101762	-8.951494	9.788844	0.170848	28.062021	-6.178486	0.000000	-6.460399	-3.457228	14.819162	9.739876	0.169993	25.995872	0.508848	0.000000	-0.458864	0.247432	-2.886741	-0.852157	0.329085	-3.067162	-0.753868	0.601606	-3.067162	-0.524436	0.601606	-2.525898	-0.426101	0.504563	-2.345477	-0.262195	0.383272	-2.165055	-3.277622	2.799000	-16.055185	0.000000	0.000000	18.819730	-6.713706	-13.850112	4.745675	-11.808043	-39.085522	98.903930	66.032343	-4.136979	5.650913	6.923147	-13.762496	21.099035	24.746354	80.226854	-11.857968	1.901514
1.481481	0.682492	-2.250465	101.121164	0.248708	0.897490	0.665016	-5.946160	3.337026	-9.430121	9.679132	0.168933	28.060533	-6.137344	0.000000	-6.469135	-3.645461	15.391995	9.804859	0.171127	26.006307	0.128431	0.000000	-0.452779	0.257247	-2.918064	-0.840856	0.342139	-3.100443	-0.743870	0.625471	-3.100443	-0.517481	0.625471	-2.553306	-0.420450	0.524578	-2.370927	-0.258718	0.398476	-2.188548	-3.234154	2.910030	-16.229399	0.000000	0.000000	18.896806	-6.853565	-14.561367	5.865257	-13.250214	-42.532979	101.004895	67.777276	-4.307667	5.799512	7.097665	-13.667271	21.550931	24.604371	80.219630	-11.717665	2.016831
1.500000	0.832479	-2.220066	101.396651	0.248123	0.897227	0.664508	-5.991239	3.535400	-9.723237	9.630452	0.168083	28.095032	-6.057831	0.000000	-6.484755	-3.790264	15.812211	9.850026	0.171915	25.969443	-0.355480	0.000000	-0.442149	0.261089	-2.879847	-0.821114	0.347249	-3.059837	-0.726406	0.634812	-3.059837	-0.505332	0.634812	-2.519866	-0.410579	0.532413	-2.339876	-0.252644	0.404427	-2.159885	-3.158224	2.953493	-16.016845	0.000000	0.000000	18.936590	-6.955792	-15.520726	7.078961	-15.061498	-46.057011	103.052013	70.177556	-4.811209	6.074510	7.410454	-13.565072	22.485587	24.375133	80.057913	-11.649819	2.006220
1.518519	0.968636	-2.212948	101.517404	0.247746	0.896934	0.664107	-5.989224	3.699873	-9.838899	9.601724	0.167582	28.127324	-6.029925	0.000000	-6.499050	-3.898337	16.092528	9.880772	0.172452	25.890968	-0.845161	0.000000	-0.427702	0.257438	-2.795498	-0.794285	0.342392	-2.970217	-0.702671	0.625934	-2.970217	-0.488820	0.625934	-2.446061	-0.397164	0.524967	-2.271342	-0.244389	0.398771	-2.096624	-3.055031	2.912188	-15.547724	0.000000	0.000000	18.941511	-7.016517	-16.715609	8.426482	-17.308139	-49.471073	104.986756	73.185005	-5.777895	6.551578	7.857562	-13.468653	23.842180	24.042067	79.628168	-11.581116	1.842531
1.537037	1.092399	-2.231143	101.472559	0.247603	0.896625	0.663771	-5.931013	3.827501	-9.805321	9.612925	0.167777	28.174902	-6.001622	0.000000	-6.513000	-3.966670	16.261531	9.894292	0.172688	25.761673	-1.387659	0.000000	-0.408549	0.245643	-2.661622	-0.758716	0.326706	-2.827973	-0.671205	0.597258	-2.827973	-0.466931	0.597258	-2.328919	-0.379379	0.500916	-2.162568	-0.233445	0.380502	-1.996216	-2.918225	2.778768	-14.803142	0.000000	0.000000	18.836554	-7.081056	-18.204526	9.753721	-20.066190	-52.766907	106.742977	76.749876	-7.229473	7.158215	8.440345	-13.367317	25.560318	23.622367	78.959613	-11.479671	1.577054
